<?xml version="1.0" encoding="UTF-8" standalone="no"?>
<!-- Created with Inkscape (http://www.inkscape.org/) -->

<svg
   xmlns:dc="http://purl.org/dc/elements/1.1/"
   xmlns:cc="http://creativecommons.org/ns#"
   xmlns:rdf="http://www.w3.org/1999/02/22-rdf-syntax-ns#"
   xmlns:svg="http://www.w3.org/2000/svg"
   xmlns="http://www.w3.org/2000/svg"
   xmlns:sodipodi="http://sodipodi.sourceforge.net/DTD/sodipodi-0.dtd"
   xmlns:inkscape="http://www.inkscape.org/namespaces/inkscape"
   width="200"
   height="120"
   id="svg3590"
   version="1.1"
   inkscape:version="0.47pre4 r22446"
   sodipodi:docname="theme_toolbar_dust.svg"
   inkscape:export-filename="/home/joel/Programs/Project_Chrome_Dust/Chrome_Dust/images/theme_toolbar_dust.png"
   inkscape:export-xdpi="90"
   inkscape:export-ydpi="90">
  <defs
     id="defs3592">
    <linearGradient
       id="linearGradient4729">
      <stop
         style="stop-color:#efedea;stop-opacity:0.168;"
         offset="0"
         id="stop4731" />
      <stop
         id="stop4737"
         offset="0.59090906"
         style="stop-color:#efedea;stop-opacity:1;" />
      <stop
         style="stop-color:#efedea;stop-opacity:0;"
         offset="1"
         id="stop4733" />
    </linearGradient>
    <inkscape:perspective
       sodipodi:type="inkscape:persp3d"
       inkscape:vp_x="0 : 526.18109 : 1"
       inkscape:vp_y="0 : 1000 : 0"
       inkscape:vp_z="744.09448 : 526.18109 : 1"
       inkscape:persp3d-origin="372.04724 : 350.78739 : 1"
       id="perspective3598" />
  </defs>
  <sodipodi:namedview
     id="base"
     pagecolor="#ffffff"
     bordercolor="#666666"
     borderopacity="1.0"
     inkscape:pageopacity="0.0"
     inkscape:pageshadow="2"
     inkscape:zoom="2.3166667"
     inkscape:cx="89.912778"
     inkscape:cy="65.077262"
     inkscape:document-units="px"
     inkscape:current-layer="layer1"
     showgrid="false"
     inkscape:window-width="1024"
     inkscape:window-height="527"
     inkscape:window-x="0"
     inkscape:window-y="25"
     inkscape:window-maximized="1"
     showguides="true"
     inkscape:guide-bbox="true" />
  <metadata
     id="metadata3595">
    <rdf:RDF>
      <cc:Work
         rdf:about="">
        <dc:format>image/svg+xml</dc:format>
        <dc:type
           rdf:resource="http://purl.org/dc/dcmitype/StillImage" />
        <dc:title></dc:title>
      </cc:Work>
    </rdf:RDF>
  </metadata>
  <g
     inkscape:label="Layer 1"
     inkscape:groupmode="layer"
     id="layer1"
     transform="translate(0,-932.36218)">
    <rect
       style="fill:#ded9d2;fill-opacity:1;stroke:none"
       id="rect4112"
       width="200"
       height="120"
       x="0"
       y="932.36218" />
    <path
       style="fill:#efedea;fill-opacity:1;stroke:none;fill-rule:nonzero"
       d="m 0,932.36218 200,0 0,18 c 0,0 -13.24089,0.74354 -19.86341,1.07565 -4.87544,0.24449 -9.75091,0.49465 -14.62915,0.67507 -4.87993,0.18049 -9.76091,0.38627 -14.64413,0.40755 -4.49908,0.0196 -8.99782,-0.12267 -13.49492,-0.25788 -4.49524,-0.13516 -8.98791,-0.34721 -13.48046,-0.55312 -3.98543,-0.18266 -7.97025,-0.38062 -11.95354,-0.60529 -3.97949,-0.22445 -7.95807,-0.46709 -11.93439,-0.74198 -4.43447,-0.30656 -8.86519,-0.66534 -13.296716,-1.01186 -4.426501,-0.34613 -8.850289,-0.72666 -13.27731,-1.06607 -3.899288,-0.29895 -7.79701,-0.62551 -11.701018,-0.85472 C 57.819512,947.20024 53.912137,946.9248 50,946.90894 c -5.23563,-0.0212 -10.468973,0.28099 -15.696694,0.56944 -5.210565,0.28751 -10.412144,0.72428 -15.612649,1.15718 C 12.455476,949.15459 0,950.36218 0,950.36218 l 0,-18 z"
       id="rect3600"
       sodipodi:nodetypes="cccaaaaaaaaaaaaacc" />
  </g>
</svg>
