<?xml version="1.0" encoding="UTF-8" standalone="no"?>
<!-- Created with Inkscape (http://www.inkscape.org/) -->

<svg
   xmlns:i="http://ns.adobe.com/AdobeIllustrator/10.0/"
   xmlns:dc="http://purl.org/dc/elements/1.1/"
   xmlns:cc="http://creativecommons.org/ns#"
   xmlns:rdf="http://www.w3.org/1999/02/22-rdf-syntax-ns#"
   xmlns:svg="http://www.w3.org/2000/svg"
   xmlns="http://www.w3.org/2000/svg"
   xmlns:sodipodi="http://sodipodi.sourceforge.net/DTD/sodipodi-0.dtd"
   xmlns:inkscape="http://www.inkscape.org/namespaces/inkscape"
   width="128"
   height="128"
   id="svg2589"
   sodipodi:version="0.32"
   inkscape:version="0.47pre4 r22446"
   version="1.0"
   sodipodi:docname="ubuntu-screensaver.svg"
   inkscape:output_extension="org.inkscape.output.svg.inkscape"
   inkscape:export-filename="/home/joel/Programs/Project_Chrome_Dust/images_svg/ubuntu-dust-theme48.png"
   inkscape:export-xdpi="33.75"
   inkscape:export-ydpi="33.75">
  <defs
     id="defs2591">
    <inkscape:perspective
       sodipodi:type="inkscape:persp3d"
       inkscape:vp_x="0 : 64 : 1"
       inkscape:vp_y="0 : 1000 : 0"
       inkscape:vp_z="128 : 64 : 1"
       inkscape:persp3d-origin="64 : 42.666667 : 1"
       id="perspective96" />
    <linearGradient
       id="linearGradient4188">
      <stop
         style="stop-color:#ba7a5d;stop-opacity:1;"
         offset="0"
         id="stop4190" />
      <stop
         style="stop-color:#fe6e04;stop-opacity:1"
         offset="1"
         id="stop4192" />
    </linearGradient>
    <linearGradient
       id="linearGradient4180">
      <stop
         style="stop-color:#ff6309;stop-opacity:1"
         offset="0"
         id="stop4182" />
      <stop
         style="stop-color:#be6b00;stop-opacity:1;"
         offset="1"
         id="stop4184" />
    </linearGradient>
    <linearGradient
       id="linearGradient4198">
      <stop
         style="stop-color:#ff8c0a;stop-opacity:1;"
         offset="0"
         id="stop4200" />
      <stop
         style="stop-color:#891007;stop-opacity:1;"
         offset="1"
         id="stop4202" />
    </linearGradient>
    <linearGradient
       id="linearGradient3097">
      <stop
         style="stop-color:#ffdd70;stop-opacity:1"
         offset="0"
         id="stop3099" />
      <stop
         style="stop-color:#fb8b00;stop-opacity:0"
         offset="1"
         id="stop3101" />
    </linearGradient>
    <linearGradient
       id="linearGradient3128">
      <stop
         id="stop3130"
         offset="0"
         style="stop-color:#f50000;stop-opacity:1;" />
      <stop
         id="stop3132"
         offset="1"
         style="stop-color:#ffad46;stop-opacity:0;" />
    </linearGradient>
    <linearGradient
       id="linearGradient19616">
      <stop
         id="stop19618"
         offset="0"
         style="stop-color:#ef583d;stop-opacity:1;" />
      <stop
         style="stop-color:#c40b0b;stop-opacity:1;"
         offset="1"
         id="stop19622" />
    </linearGradient>
    <linearGradient
       id="linearGradient22579">
      <stop
         style="stop-color:#ff3247;stop-opacity:1;"
         offset="0"
         id="stop22581" />
      <stop
         style="stop-color:#c80015;stop-opacity:0;"
         offset="1"
         id="stop22583" />
    </linearGradient>
    <linearGradient
       id="linearGradient6231">
      <stop
         style="stop-color:white;stop-opacity:1"
         offset="0"
         id="stop6233" />
      <stop
         style="stop-color:white;stop-opacity:0"
         offset="1"
         id="stop6235" />
    </linearGradient>
    <linearGradient
       id="linearGradient4206">
      <stop
         style="stop-color:#d37100;stop-opacity:1;"
         offset="0"
         id="stop4208" />
      <stop
         style="stop-color:#ff9e2c;stop-opacity:1;"
         offset="1"
         id="stop4210" />
    </linearGradient>
  </defs>
  <sodipodi:namedview
     id="base"
     pagecolor="#ffffff"
     bordercolor="#666666"
     borderopacity="1.0"
     inkscape:pageopacity="0.0"
     inkscape:pageshadow="2"
     inkscape:zoom="2.171875"
     inkscape:cx="64"
     inkscape:cy="64"
     inkscape:current-layer="layer1"
     showgrid="true"
     inkscape:document-units="px"
     inkscape:grid-bbox="true"
     inkscape:window-width="1024"
     inkscape:window-height="527"
     inkscape:window-x="0"
     inkscape:window-y="25"
     inkscape:window-maximized="1" />
  <metadata
     id="metadata2594">
    <rdf:RDF>
      <cc:Work
         rdf:about="">
        <dc:format>image/svg+xml</dc:format>
        <dc:type
           rdf:resource="http://purl.org/dc/dcmitype/StillImage" />
        <dc:title></dc:title>
      </cc:Work>
    </rdf:RDF>
  </metadata>
  <g
     id="layer1"
     inkscape:label="Layer 1"
     inkscape:groupmode="layer">
    <path
       inkscape:export-ydpi="110.30428"
       inkscape:export-xdpi="110.30428"
       inkscape:export-filename="/home/jonny/Design/Ubuntu/Edgy/logo.png"
       id="path12902"
       d="m 72.241204,14.493859 c -0.648553,0.0015 -1.288723,0.0551 -1.9329,0.08166 -0.214442,0.0092 -0.430413,-0.01204 -0.644318,0 -6.383765,0.346132 -12.537432,1.909304 -18.201622,4.614722 l 10.06727,17.723772 c 0.183888,-0.07505 0.377989,-0.13284 0.563753,-0.204192 l 0.120825,0.204192 c 2.930452,-1.196076 6.114681,-1.919244 9.422942,-2.082752 0.244687,-0.0063 0.478774,-0.04083 0.724828,-0.04083 0.09542,0 0.186698,-9.34e-4 0.2819,0 0.657927,0.0056 1.28594,0.03223 1.932937,0.08169 0.161112,0.01244 0.32282,0.02569 0.483216,0.04083 0.17522,0.01636 0.349178,0.06215 0.523531,0.08169 0.564564,0.06377 1.13671,0.10801 1.691268,0.204183 0.532094,0.09187 1.048534,0.205823 1.570491,0.326705 0.483781,0.112111 0.975304,0.231285 1.449684,0.367549 0.02826,0.0081 0.05236,0.03262 0.08056,0.04083 0.810524,0.235596 1.595557,0.513289 2.375865,0.816757 0.05056,0.01962 0.110678,0.02094 0.161075,0.04084 3.172215,1.254857 6.094952,3.07341 8.617605,5.308976 0.06396,0.05688 0.137838,0.105916 0.201334,0.163339 1.206393,1.088453 2.287547,2.277805 3.302055,3.552947 0.02334,0.02939 0.05735,0.05216 0.08054,0.08167 0.508744,0.64445 0.994722,1.314326 1.449703,2.001054 0.04386,0.0664 0.07747,0.137451 0.120815,0.20422 0.426953,0.655862 0.832743,1.310243 1.208063,2.001054 0.400876,0.738597 0.788984,1.511776 1.127534,2.286944 1.060492,2.422802 1.793042,5.007725 2.174512,7.718405 l 20.13457,0 0.68457,0 c -0.9149,-11.230819 -5.53201,-21.720033 -13.20826,-29.975239 -0.15641,0.08078 -0.32469,0.128436 -0.48322,0.204183 -0.0643,-0.06981 -0.13672,-0.134669 -0.20139,-0.204183 -2.36175,1.21988 -4.96091,1.868583 -7.61082,1.878561 -2.643006,-0.0993 -5.315323,-0.849019 -7.771942,-2.286925 -5.13898,-3.009631 -8.130155,-8.33263 -8.416261,-13.925836 -2.951208,-0.697762 -5.973231,-1.088595 -9.060514,-1.22515 -0.841513,-0.04895 -1.686439,-0.07614 -2.536987,-0.08166 -0.121438,-9.34e-4 -0.240849,0 -0.362428,0 -0.04049,0 -0.08031,-1.13e-4 -0.120778,0 z"
       style="fill:#767676;fill-opacity:1;stroke:#000000;stroke-width:3.30699158;stroke-linejoin:round;stroke-miterlimit:4;stroke-opacity:1;stroke-dasharray:none;display:inline"
       sodipodi:nodetypes="csccccccssssssssssscsssssscccccccccccssc" />
    <path
       sodipodi:nodetypes="csccccccssssssssssscsssssscccccccccccssc"
       style="fill:#767676;fill-opacity:1;stroke:#000000;stroke-width:3.30699158;stroke-linejoin:round;stroke-miterlimit:4;stroke-opacity:1;stroke-dasharray:none;display:inline"
       d="m 115.80452,89.008353 c 0.32292,-0.562769 0.59664,-1.144299 0.89574,-1.715798 0.0992,-0.190452 0.22565,-0.366964 0.32217,-0.558357 2.89231,-5.704982 4.61621,-11.819103 5.10683,-18.080185 l -20.37339,-0.13797 c -0.027,0.196874 -0.074,0.393974 -0.10514,0.590621 l -0.23713,0.0026 c -0.43005,3.137453 -1.39625,6.258375 -2.908879,9.206935 -0.116949,0.21514 -0.20404,0.435317 -0.327063,0.648532 -0.04771,0.0827 -0.09253,0.162257 -0.14095,0.24429 -0.333806,0.567332 -0.670885,1.098213 -1.03717,1.63416 -0.09132,0.133386 -0.18367,0.266888 -0.276949,0.398313 -0.101785,0.143661 -0.228391,0.27153 -0.332467,0.412835 -0.337465,0.457361 -0.66185,0.931026 -1.022363,1.363505 -0.345548,0.415142 -0.702393,0.805702 -1.06799,1.19757 -0.338908,0.363171 -0.687831,0.72951 -1.042941,1.072475 -0.02116,0.02041 -0.05442,0.02903 -0.07564,0.04936 -0.609161,0.584569 -1.242031,1.126012 -1.894818,1.650455 -0.04229,0.03399 -0.07346,0.08545 -0.115893,0.119182 -2.672175,2.121461 -5.707476,3.744936 -8.903654,4.813186 -0.08121,0.02702 -0.160594,0.06646 -0.242037,0.09279 -1.545244,0.501185 -3.115198,0.843403 -4.72606,1.084956 -0.03711,0.0057 -0.07382,0.02364 -0.110961,0.02896 -0.812127,0.118629 -1.634892,0.204823 -2.456732,0.25573 -0.07942,0.005 -0.157708,-0.0014 -0.237171,0.0029 -0.781119,0.04203 -1.550365,0.06654 -2.335927,0.04635 -0.839683,-0.02191 -1.702914,-0.07218 -2.543089,-0.166396 -2.627172,-0.292396 -5.230644,-0.950081 -7.767453,-1.974847 l -10.067279,17.447835 -0.342294,0.59323 c 10.177627,4.82256 21.564467,6.06618 32.547384,3.54184 0.0083,-0.17592 0.05119,-0.3456 0.06489,-0.52084 0.09255,-0.0208 0.184906,-0.0512 0.277411,-0.0724 0.125097,-2.65656 0.863222,-5.23323 2.179548,-7.53453 1.407454,-2.24068 3.392486,-4.18154 5.865279,-5.591397 5.174278,-2.948432 11.276878,-2.878965 16.260798,-0.330298 2.0795,-2.208518 3.92877,-4.631882 5.59059,-7.238921 0.46312,-0.704742 0.90913,-1.423337 1.33919,-2.157611 0.0615,-0.104789 0.12043,-0.208731 0.18122,-0.314073 0.0202,-0.03506 0.0403,-0.06955 0.0604,-0.104668 z"
       id="path12904"
       inkscape:export-filename="/home/jonny/Design/Ubuntu/Edgy/logo.png"
       inkscape:export-xdpi="110.30428"
       inkscape:export-ydpi="110.30428" />
    <path
       inkscape:export-ydpi="110.30428"
       inkscape:export-xdpi="110.30428"
       inkscape:export-filename="/home/jonny/Design/Ubuntu/Edgy/logo.png"
       id="path12906"
       d="m 29.919833,89.053081 c 0.325611,0.561238 0.692066,1.089202 1.037142,1.634137 0.115204,0.181212 0.204776,0.379 0.322159,0.558343 3.49145,5.358855 7.921201,9.909799 13.09481,13.465469 l 10.3061,-17.585812 c -0.156907,-0.121804 -0.303977,-0.261126 -0.45863,-0.386422 L 54.33775,86.531998 C 51.837335,84.59062 49.61932,82.192865 47.823683,79.407811 47.695954,79.1989 47.54895,79.013349 47.425909,78.800134 c -0.0477,-0.0827 -0.09416,-0.161323 -0.140941,-0.244291 -0.32414,-0.572928 -0.615065,-1.130481 -0.895767,-1.715855 -0.06979,-0.145825 -0.139158,-0.292595 -0.206267,-0.439137 -0.07344,-0.160028 -0.120806,-0.333674 -0.191083,-0.494523 -0.227089,-0.521126 -0.47486,-1.039046 -0.668904,-1.567689 -0.186529,-0.507027 -0.346132,-1.011538 -0.502483,-1.52429 -0.144873,-0.475265 -0.287464,-0.960791 -0.406751,-1.439999 -0.0071,-0.02855 0.0021,-0.06168 -0.0049,-0.09023 -0.201363,-0.820162 -0.353545,-1.639296 -0.481037,-2.46721 -0.0083,-0.05363 -0.03721,-0.106377 -0.04518,-0.160009 -0.50004,-3.37634 -0.387485,-6.818347 0.28604,-10.122166 0.01724,-0.08388 0.02276,-0.172401 0.0407,-0.256126 0.338861,-1.589653 0.82764,-3.121223 1.424023,-4.637921 0.01375,-0.03492 0.01647,-0.07577 0.03041,-0.11064 0.303392,-0.763079 0.640169,-1.519141 1.007039,-2.256775 0.03554,-0.07121 0.08022,-0.135858 0.116336,-0.206805 0.354167,-0.697912 0.717632,-1.376747 1.127873,-2.047377 0.438807,-0.716699 0.913931,-1.439603 1.415555,-2.12055 1.566662,-2.130405 3.437611,-4.057656 5.592932,-5.743567 L 44.856216,23.70714 44.513922,23.113897 c -9.262696,6.408256 -16.032447,15.653865 -19.339124,26.43341 0.148118,0.09514 0.273516,0.217159 0.418343,0.316652 -0.02832,0.09059 -0.04819,0.185802 -0.07603,0.276591 2.23667,1.436679 4.097689,3.364655 5.431282,5.655985 1.235561,2.339972 1.922846,5.030556 1.906654,7.878319 -0.0353,5.958057 -3.146724,11.21161 -7.84452,14.256133 0.871691,2.906283 2.044444,5.720473 3.469901,8.464068 0.378395,0.753695 0.777319,1.499479 1.197802,2.239292 0.05993,0.105695 0.120429,0.208717 0.181219,0.314067 0.02025,0.03506 0.04005,0.06963 0.06039,0.104667 z"
       style="fill:#767676;fill-opacity:1;stroke:#000000;stroke-width:3.30699158;stroke-linejoin:round;stroke-miterlimit:4;stroke-opacity:1;stroke-dasharray:none;display:inline"
       sodipodi:nodetypes="csccccccssssssssssscsssssscccccccccccssc" />
    <circle
       d="m 83.671996,84.667 c 0,5.039046 -4.084954,9.123999 -9.123999,9.123999 -5.039046,0 -9.124,-4.084953 -9.124,-9.123999 0,-5.039046 4.084954,-9.124 9.124,-9.124 5.039045,0 9.123999,4.084954 9.123999,9.124 z"
       inkscape:export-ydpi="110.30428"
       inkscape:export-xdpi="110.30428"
       inkscape:export-filename="/home/jonny/Design/Ubuntu/Edgy/logo.png"
       id="circle12908"
       r="9.1239996"
       cy="84.667"
       cx="74.547997"
       i:knockout="Off"
       sodipodi:cx="74.547997"
       sodipodi:cy="84.667"
       sodipodi:rx="9.1239996"
       sodipodi:ry="9.1239996"
       style="fill:#767676;fill-opacity:1;stroke:#000000;stroke-width:3.01171541;stroke-miterlimit:4;stroke-opacity:1;stroke-dasharray:none;display:inline"
       transform="matrix(1.288612,0,0,1.3068251,-79.56126,-46.216899)" />
    <circle
       d="m 83.671996,84.667 c 0,5.039046 -4.084954,9.123999 -9.123999,9.123999 -5.039046,0 -9.124,-4.084953 -9.124,-9.123999 0,-5.039046 4.084954,-9.124 9.124,-9.124 5.039045,0 9.123999,4.084954 9.123999,9.124 z"
       transform="matrix(1.288612,0,0,1.3068251,4.596414,-95.599209)"
       style="fill:#767676;fill-opacity:1;stroke:#000000;stroke-width:3.01171541;stroke-miterlimit:4;stroke-opacity:1;stroke-dasharray:none;display:inline"
       sodipodi:ry="9.1239996"
       sodipodi:rx="9.1239996"
       sodipodi:cy="84.667"
       sodipodi:cx="74.547997"
       i:knockout="Off"
       cx="74.547997"
       cy="84.667"
       r="9.1239996"
       id="circle12910"
       inkscape:export-filename="/home/jonny/Design/Ubuntu/Edgy/logo.png"
       inkscape:export-xdpi="110.30428"
       inkscape:export-ydpi="110.30428" />
    <path
       style="fill:#767676;fill-opacity:1;stroke:#000000;stroke-width:0.71852332;stroke-opacity:1;display:inline"
       d="m 100.64887,2.9981901 c -6.490041,0 -11.75857,5.3430205 -11.75857,11.9247619 0,6.581761 5.268547,11.924772 11.75857,11.924772 6.49001,0 11.75859,-5.343011 11.75859,-11.924772 0,-6.5817508 -5.26858,-11.9247619 -11.75859,-11.9247619 z"
       id="path12912" />
    <path
       style="fill:#767676;fill-opacity:1;stroke:#000000;stroke-width:0.71852332;stroke-opacity:1;display:inline"
       d="m 72.541031,14.514559 c -7.350205,0 -14.439823,1.611014 -20.899655,4.69641 l 10.067289,17.723792 c 3.349114,-1.36695 7.007779,-2.123587 10.832366,-2.123587 14.639913,0 26.82116,11.026968 28.832659,25.319701 l 20.13459,0 c -0.91493,-11.230838 -5.53205,-21.720062 -13.20826,-29.975248 -4.91608,2.539146 -10.932263,2.597296 -16.067396,-0.408394 -5.138979,-3.009611 -8.130173,-8.33263 -8.416213,-13.925844 -3.648065,-0.862506 -7.436599,-1.30683 -11.27538,-1.30683 z"
       id="path12914" />
    <path
       style="fill:#767676;fill-opacity:1;stroke:#000000;stroke-width:0.71852332;stroke-opacity:1;display:inline"
       d="m 44.513762,23.417299 c -2.364558,1.67534 -4.600981,3.564698 -6.684667,5.676516 -5.834846,5.917288 -10.01958,13.070525 -12.322367,20.868336 4.639044,3.047513 7.691424,8.311072 7.691424,14.334219 0,6.021865 -3.052428,11.32885 -7.691424,14.375055 2.302787,7.797817 6.487521,14.95104 12.322367,20.868338 2.082356,2.111797 4.321335,3.999857 6.684667,5.676497 L 54.581041,87.492506 C 47.810706,82.08615 43.466746,73.692434 43.466746,64.29637 c 0,-9.399978 4.342649,-17.789796 11.114295,-23.196115 L 44.513762,23.417299 z"
       id="path12916" />
    <path
       style="fill:#767676;fill-opacity:1;stroke:#000000;stroke-width:0.71852332;stroke-opacity:1;display:inline"
       d="m 16.365658,52.371598 c -6.4900104,0 -11.758576,5.34303 -11.758576,11.924772 0,6.581742 5.2685656,11.924771 11.758576,11.924771 6.490057,0 11.758557,-5.343029 11.758585,-11.924771 0,-6.581751 -5.268528,-11.924772 -11.758585,-11.924772 z"
       id="path12918" />
    <path
       style="fill:#767676;fill-opacity:1;stroke:#000000;stroke-width:0.71852332;stroke-opacity:1;display:inline"
       d="m 101.37369,68.461874 c -2.006322,14.297956 -14.188889,25.36052 -28.832659,25.36052 -3.82718,0 -7.483252,-0.754011 -10.832366,-2.123588 L 51.641376,109.38177 c 6.458502,3.0867 13.546848,4.73723 20.899655,4.73723 3.841393,2e-5 7.625994,-0.44432 11.27538,-1.30684 0.280909,-5.59972 3.273367,-10.95573 8.416213,-13.966656 5.136397,-3.008291 11.190276,-2.952771 16.107606,-0.408372 7.66984,-8.256494 12.2557,-18.74835 13.16805,-29.975258 l -20.13459,0 z"
       id="path12920" />
    <circle
       d="m 83.664001,9.1260004 c 0,5.0390456 -4.084954,9.1239996 -9.124,9.1239996 -5.039046,0 -9.124,-4.084954 -9.124,-9.1239996 0,-5.0390458 4.084954,-9.12399959 9.124,-9.12399959 5.039046,0 9.124,4.08495379 9.124,9.12399959 z"
       inkscape:export-ydpi="110.30428"
       inkscape:export-xdpi="110.30428"
       inkscape:export-filename="/home/jonny/Design/Ubuntu/Edgy/logo.png"
       id="circle12922"
       r="9.1239996"
       cy="9.1260004"
       cx="74.540001"
       i:knockout="Off"
       sodipodi:cx="74.540001"
       sodipodi:cy="9.1260004"
       sodipodi:rx="9.1239996"
       sodipodi:ry="9.1239996"
       style="fill:#767676;fill-opacity:1;stroke:#000000;stroke-opacity:1;display:inline"
       transform="matrix(1.288612,0,0,1.3068251,4.596414,3.2650636)" />
    <g
       style="fill:#767676;fill-opacity:1;stroke:#000000;stroke-opacity:1;display:inline"
       id="g12924"
       transform="matrix(0.94100247,0,0,0.94158534,-244.60531,-175.23772)">
      <path
         id="path12926"
         d="m 307.2458,210.97928 c -2.51281,1.77927 -4.88945,3.78585 -7.10377,6.02869 -6.20067,6.28438 -10.64777,13.8814 -13.09493,22.16297 4.92989,3.23658 8.17365,8.82668 8.17365,15.22349 0,6.39545 -3.24381,12.03168 -8.17365,15.26687 2.44716,8.28158 6.89426,15.87857 13.09493,22.16298 2.21291,2.24281 4.59228,4.248 7.10377,6.02866 l 10.69847,-18.82333 c -7.19482,-5.74175 -11.81112,-14.6562 -11.81112,-24.63518 0,-9.98313 4.61491,-18.89344 11.81112,-24.63516 L 307.2458,210.97928 z"
         style="fill:#767676;fill-opacity:1;stroke:#000000;stroke-opacity:1;display:inline" />
      <path
         id="path12928"
         d="m 277.33291,241.72987 c -6.89691,0 -12.49579,5.6745 -12.49579,12.66456 0,6.99007 5.59888,12.66457 12.49579,12.66457 6.89696,0 12.49579,-5.6745 12.49582,-12.66457 0,-6.99007 -5.59886,-12.66456 -12.49582,-12.66456 z"
         style="fill:#767676;fill-opacity:1;stroke:#000000;stroke-opacity:1;display:inline" />
      <path
         id="path12930"
         d="m 366.90038,294.16634 c -6.89694,0 -12.49579,5.67452 -12.49579,12.66457 0,6.99005 5.59887,12.66455 12.49579,12.66455 6.89691,0 12.49583,-5.6745 12.49583,-12.66455 0,-6.99009 -5.59892,-12.66457 -12.49583,-12.66457 z"
         style="fill:#767676;fill-opacity:1;stroke:#000000;stroke-opacity:1;display:inline" />
    </g>
    <path
       id="path12948"
       d="m 99.78158,5.8064412 c -5.208436,0.1518423 -9.759388,4.7136778 -10.022937,9.9154458 -0.506442,5.170488 3.296586,10.357734 8.420637,11.31976 5.00414,1.147848 10.41375,-1.99732 12.04572,-6.839612 1.82923,-4.821989 -0.34618,-10.7112399 -4.91488,-13.1220548 -1.67849,-0.9228709 -3.61005,-1.3682035 -5.52854,-1.273539 z M 71.468459,17.143252 c -6.42923,0.03833 -12.803092,1.317033 -18.704962,3.894543 2.935676,5.262841 5.871352,10.525702 8.807009,15.788534 0.599458,-0.188424 1.068998,-3.11e-4 1.755727,-0.375244 6.245172,-2.028394 13.21173,-1.803559 19.278843,0.693631 9.844142,3.742512 17.277412,13.051268 18.943594,23.45822 6.16491,0.04738 12.32982,0.09476 18.49474,0.142138 -1.00164,-10.1327 -5.24449,-19.86555 -12.01164,-27.460791 -0.51572,0.150588 -0.96782,0.04868 -1.52275,0.397982 -4.09143,1.639163 -8.803902,1.546281 -12.812792,-0.289955 -6.004946,-2.559271 -10.308816,-8.586511 -10.841155,-15.083538 -3.723425,-0.83742 -7.553436,-1.17083 -11.386614,-1.16552 z m -27.733572,9.47198 c -8.114481,5.967469 -14.299939,14.542155 -17.375367,24.134792 0.345698,0.443164 0.669592,0.852358 1.244681,1.221812 3.502334,2.750788 5.755309,6.952299 6.141841,11.388546 0.706014,6.40488 -2.287773,12.978191 -7.545617,16.692524 3.223508,9.697808 9.263282,18.550102 17.596968,24.566884 3.045534,-5.198399 6.091039,-10.396814 9.136563,-15.595223 C 52.502429,88.544522 52.239381,88.047584 51.599759,87.595396 46.738539,83.221328 43.475177,77.160319 42.547365,70.688944 40.82259,60.275722 45.060766,49.20676 53.172597,42.506098 50.0892,37.163662 47.005793,31.821217 43.922396,26.478781 l -0.147042,0.107018 -0.04047,0.02943 z M 15.626316,55.184687 C 10.41706,55.336152 5.8680221,59.899091 5.6033706,65.100134 5.0990491,70.27296 8.8969477,75.461827 14.024007,76.42558 18.942169,77.553897 24.258199,74.532883 25.978825,69.830438 27.945891,64.997887 25.841421,58.978455 21.235139,56.505294 19.540296,55.547361 17.574955,55.089815 15.626316,55.184687 z m 86.734874,16.51058 c -0.47324,0.184896 -0.28595,1.148262 -0.5246,1.638268 -1.3929,6.2399 -4.951973,11.960582 -9.981312,15.918452 -8.111153,6.749456 -19.887901,8.624996 -29.762023,4.940667 -3.083397,5.340547 -6.166795,10.681096 -9.250201,16.021636 9.271147,4.12821 19.85147,5.24232 29.779073,3.09857 0.181869,-0.55232 0.439542,-1.04762 0.460233,-1.77954 0.646176,-4.33129 3.120601,-8.33597 6.679216,-10.86101 5.172233,-3.883308 12.471364,-4.589156 18.315644,-1.880101 6.78945,-7.650972 11.43015,-17.31907 12.47187,-27.534721 -6.02664,-0.0417 -12.0533,-0.08338 -18.07995,-0.125078 -0.036,0.187622 -0.072,0.375244 -0.10795,0.562857 z m -2.57961,32.873363 c -5.208436,0.15183 -9.759388,4.71369 -10.022937,9.91544 -0.506442,5.17049 3.296586,10.35774 8.420637,11.31974 5.00414,1.14787 10.41375,-1.9973 12.04572,-6.8396 1.86602,-4.90396 -0.43073,-10.90138 -5.13647,-13.24144 -1.62593,-0.84031 -3.47252,-1.24519 -5.30695,-1.15414 z"
       style="opacity:0.03842576;fill:#767676;fill-opacity:1;stroke:#000000;stroke-width:4.50953436;stroke-miterlimit:4;stroke-opacity:1;display:inline" />
    <circle
       d="m 18.247999,46.903999 c 0,5.039046 -4.084954,9.124 -9.1239994,9.124 C 4.0849538,56.027999 0,51.943045 0,46.903999 0,41.864953 4.0849538,37.78 9.1239996,37.78 c 5.0390454,0 9.1239994,4.084953 9.1239994,9.123999 z"
       inkscape:export-ydpi="110.30428"
       inkscape:export-xdpi="110.30428"
       inkscape:export-filename="/home/jonny/Design/Ubuntu/Edgy/logo.png"
       id="circle12932"
       r="9.1239996"
       cy="46.903999"
       cx="9.1239996"
       i:knockout="Off"
       sodipodi:cx="9.1239996"
       sodipodi:cy="46.903999"
       sodipodi:rx="9.1239996"
       sodipodi:ry="9.1239996"
       style="fill:#767676;fill-opacity:1;stroke:#000000;stroke-opacity:1;display:inline"
       transform="matrix(1.288612,0,0,1.3068251,5.2943373,3.7157932)" />
    <path
       inkscape:export-ydpi="110.30428"
       inkscape:export-xdpi="110.30428"
       inkscape:export-filename="/home/jonny/Design/Ubuntu/Edgy/logo.png"
       style="fill:#767676;fill-opacity:1;stroke:#000000;stroke-width:0.71852332;stroke-opacity:1;display:inline"
       d="m 99.944032,2.9981901 c -6.490029,0 -11.758586,5.3430205 -11.758586,11.9247619 0,6.581761 5.268557,11.924772 11.758586,11.924772 6.490028,0 11.758568,-5.343011 11.758568,-11.924772 0,-6.5817508 -5.26854,-11.9247619 -11.758568,-11.9247619 z M 71.836206,14.514559 c -7.350262,0 -14.439852,1.611014 -20.899655,4.69641 l 10.067242,17.723792 c 3.349142,-1.36695 7.007816,-2.123587 10.832413,-2.123587 14.639913,0 26.82114,11.026968 28.832654,25.319701 l 20.13452,0 c -0.91491,-11.230838 -5.53197,-21.720062 -13.20823,-29.975248 -4.91607,2.539146 -10.932266,2.597296 -16.06737,-0.408394 -5.138989,-3.009611 -8.130173,-8.33263 -8.416261,-13.925844 -3.648055,-0.862506 -7.436561,-1.30683 -11.275313,-1.30683 z m -28.027308,8.90274 c -2.364595,1.67534 -4.60099,3.564698 -6.684638,5.676516 -5.834884,5.917288 -10.019608,13.070525 -12.322377,20.868336 4.639025,3.047513 7.691405,8.311072 7.691405,14.334219 0,6.021865 -3.05238,11.32885 -7.691405,14.375055 2.302779,7.797817 6.487493,14.95104 12.322377,20.868338 2.082356,2.111797 4.321345,3.999857 6.684638,5.676497 L 53.876178,87.492506 C 47.105815,82.08615 42.761902,73.692434 42.761902,64.29637 c 0,-9.399978 4.342621,-17.789796 11.114276,-23.196115 L 43.808898,23.417299 z M 15.660795,52.371598 c -6.4900101,0 -11.7585765,5.34303 -11.7585765,11.924772 0,6.581742 5.2685664,11.924771 11.7585765,11.924771 6.490047,0 11.758585,-5.343029 11.758585,-11.924771 0,-6.581751 -5.268538,-11.924772 -11.758585,-11.924772 z m 85.008065,16.090276 c -2.006365,14.297956 -14.188875,25.36052 -28.832654,25.36052 -3.827181,0 -7.483271,-0.754011 -10.832413,-2.123588 L 50.936551,109.38177 c 6.458511,3.0867 13.546828,4.73723 20.899655,4.73723 3.841355,2e-5 7.626003,-0.44432 11.275313,-1.30684 0.280929,-5.59972 3.273396,-10.95573 8.416261,-13.966656 5.136434,-3.008291 11.19032,-2.952771 16.10764,-0.408372 7.66983,-8.256494 12.25564,-18.74835 13.16796,-29.975258 l -20.13452,0 z m -0.724828,33.283146 c -6.490029,0 -11.758586,5.34305 -11.758586,11.92477 0,6.58173 5.268557,11.92475 11.758586,11.92475 6.490028,0 11.758568,-5.34302 11.758568,-11.92475 0,-6.58177 -5.26854,-11.92477 -11.758568,-11.92477 z"
       id="path12934" />
    <path
       id="path12946"
       d="m 99.747498,4.0736672 c -5.191367,0.1820581 -9.609395,4.7952053 -9.738858,9.9211138 -0.382054,5.142743 3.573412,10.176571 8.721803,10.876285 4.921797,0.879726 10.047287,-2.455742 11.397957,-7.226211 1.63513,-4.940833 -1.00763,-10.8106572 -5.84103,-12.7638609 -1.41759,-0.6266646 -2.99384,-0.8827719 -4.539872,-0.8073269 z M 71.479823,15.410468 c -6.284018,0.02932 -12.55601,1.271304 -18.341317,3.752405 2.852337,5.111235 5.704684,10.22247 8.557013,15.333695 0.628748,-0.169741 1.138351,-0.06016 1.852315,-0.386598 6.218625,-1.958824 13.107258,-1.685903 19.114052,0.773216 9.881063,3.743352 17.371044,13.034953 19.102704,23.45822 5.99445,0.04548 11.9889,0.09097 17.98335,0.136451 -1.04013,-9.907741 -5.19494,-19.420311 -11.79003,-26.875187 -0.53905,0.119826 -1.0176,0.09948 -1.60799,0.415042 -4.2339,1.653131 -9.127932,1.408623 -13.20991,-0.589904 -5.817003,-2.664942 -9.928752,-8.558532 -10.534934,-14.90299 -3.649329,-0.802828 -7.39583,-1.123186 -11.125253,-1.11435 z m -28.006287,9.733521 c -7.822537,5.883149 -13.772304,14.196503 -16.80721,23.509381 0.317246,0.413183 0.60538,0.811306 1.153449,1.154156 3.605987,2.8485 5.881811,7.210764 6.210346,11.79164 0.616206,6.352304 -2.363106,12.820378 -7.517193,16.56177 3.191717,9.479988 9.107412,18.145408 17.204918,24.077924 2.960309,-5.052476 5.920589,-10.104967 8.880889,-15.15745 -0.455801,-0.448639 -0.61647,-0.939936 -1.267089,-1.375865 C 46.479518,81.315814 43.219853,75.218412 42.286005,68.734428 40.554194,58.31517 44.75529,47.229422 52.83169,40.443563 49.833517,35.250848 46.835335,30.058123 43.837181,24.865398 c -0.121221,0.09286 -0.242442,0.185718 -0.363645,0.278591 z M 15.592234,53.451904 c -5.190443,0.182482 -9.6098755,4.794639 -9.7388583,9.921142 -0.3875413,5.129663 3.5789861,10.186492 8.7217753,10.881972 4.981649,0.895173 10.15854,-2.540316 11.452751,-7.405393 1.521526,-4.909279 -1.122027,-10.658193 -5.895787,-12.590394 -1.417139,-0.626693 -2.994268,-0.882801 -4.539881,-0.807327 z m 86.984876,16.504902 c -0.49325,0.13135 -0.25727,1.115755 -0.51139,1.552129 -1.41715,6.256109 -4.997452,11.955637 -10.017257,15.936371 -8.12808,6.745985 -19.912071,8.711599 -29.830196,5.06574 -2.998173,5.192711 -5.996355,10.385434 -8.994518,15.578164 9.092323,3.9895 19.452452,5.06029 29.15404,3.00191 0.177758,-0.49395 0.439891,-0.91768 0.443192,-1.5976 0.651627,-4.3092 3.054087,-8.30371 6.577423,-10.883116 5.201344,-4.01503 12.629066,-4.842344 18.616326,-2.136594 6.61228,-7.536972 11.15456,-16.952638 12.2389,-26.949096 -5.85619,-0.0417 -11.71237,-0.08339 -17.56857,-0.125088 -0.036,0.185736 -0.072,0.371444 -0.10795,0.55718 z m -2.829612,32.879034 c -5.191367,0.18206 -9.609395,4.79521 -9.738858,9.92114 -0.382054,5.14271 3.573412,10.17654 8.721803,10.87628 4.922037,0.87959 10.047057,-2.45573 11.397957,-7.22623 1.63515,-4.94092 -1.00768,-10.81065 -5.84103,-12.76386 -1.41759,-0.62666 -2.99384,-0.88278 -4.539872,-0.80733 z"
       style="opacity:0.03999999;fill:#767676;fill-opacity:1;stroke:#000000;stroke-width:4.50953436;stroke-miterlimit:4;stroke-opacity:1;display:inline" />
    <circle
       d="m 83.664001,9.1260004 c 0,5.0390456 -4.084954,9.1239996 -9.124,9.1239996 -5.039046,0 -9.124,-4.084954 -9.124,-9.1239996 0,-5.0390458 4.084954,-9.12399959 9.124,-9.12399959 5.039046,0 9.124,4.08495379 9.124,9.12399959 z"
       inkscape:export-ydpi="110.30428"
       inkscape:export-xdpi="110.30428"
       inkscape:export-filename="/home/jonny/Design/Ubuntu/Edgy/logo.png"
       transform="matrix(1.288612,0,0,-1.3068251,4.664839,26.614074)"
       style="fill:#767676;fill-opacity:1;stroke:#000000;stroke-opacity:1;display:inline"
       sodipodi:ry="9.1239996"
       sodipodi:rx="9.1239996"
       sodipodi:cy="9.1260004"
       sodipodi:cx="74.540001"
       i:knockout="Off"
       cx="74.540001"
       cy="9.1260004"
       r="9.1239996"
       id="circle12936" />
    <circle
       d="m 83.671996,84.667 c 0,5.039046 -4.084954,9.123999 -9.123999,9.123999 -5.039046,0 -9.124,-4.084953 -9.124,-9.123999 0,-5.039046 4.084954,-9.124 9.124,-9.124 5.039045,0 9.123999,4.084954 9.123999,9.124 z"
       inkscape:export-ydpi="110.30428"
       inkscape:export-xdpi="110.30428"
       inkscape:export-filename="/home/jonny/Design/Ubuntu/Edgy/logo.png"
       id="circle12958"
       r="9.1239996"
       cy="84.667"
       cx="74.547997"
       i:knockout="Off"
       sodipodi:cx="74.547997"
       sodipodi:cy="84.667"
       sodipodi:rx="9.1239996"
       sodipodi:ry="9.1239996"
       style="fill:#767676;fill-opacity:1;stroke:#000000;stroke-width:3.01171541;stroke-miterlimit:4;stroke-opacity:1;stroke-dasharray:none;display:inline"
       transform="matrix(1.288612,0,0,1.3068251,4.4405735,3.0094633)" />
    <path
       style="fill:#767676;fill-opacity:1;stroke:#000000;stroke-width:0.71852332;stroke-opacity:1;display:inline"
       d="m 100.64887,101.74502 c -6.490041,0 -11.75857,5.34305 -11.75857,11.92477 0,6.58173 5.268547,11.92475 11.75857,11.92475 6.49001,0 11.75859,-5.34302 11.75859,-11.92475 0,-6.58177 -5.26858,-11.92477 -11.75859,-11.92477 z"
       id="path12960" />
    <circle
       d="m 83.671996,84.667 c 0,5.039046 -4.084954,9.123999 -9.123999,9.123999 -5.039046,0 -9.124,-4.084953 -9.124,-9.123999 0,-5.039046 4.084954,-9.124 9.124,-9.124 5.039045,0 9.123999,4.084954 9.123999,9.124 z"
       inkscape:export-ydpi="110.30428"
       inkscape:export-xdpi="110.30428"
       inkscape:export-filename="/home/jonny/Design/Ubuntu/Edgy/logo.png"
       id="circle12962"
       r="9.1239996"
       cy="84.667"
       cx="74.547997"
       i:knockout="Off"
       sodipodi:cx="74.547997"
       sodipodi:cy="84.667"
       sodipodi:rx="9.1239996"
       sodipodi:ry="9.1239996"
       style="fill:#767676;fill-opacity:1;stroke:#000000;stroke-opacity:1;display:inline"
       transform="matrix(1.288612,0,0,1.3068251,4.596414,3.1654331)" />
    <circle
       d="m 83.671996,84.667 c 0,5.039046 -4.084954,9.123999 -9.123999,9.123999 -5.039046,0 -9.124,-4.084953 -9.124,-9.123999 0,-5.039046 4.084954,-9.124 9.124,-9.124 5.039045,0 9.123999,4.084954 9.123999,9.124 z"
       transform="matrix(1.288612,0,0,-1.3068251,4.596414,224.45544)"
       style="opacity:0.83695649;fill:#767676;fill-opacity:1;stroke:#000000;stroke-opacity:1;display:inline"
       sodipodi:ry="9.1239996"
       sodipodi:rx="9.1239996"
       sodipodi:cy="84.667"
       sodipodi:cx="74.547997"
       i:knockout="Off"
       cx="74.547997"
       cy="84.667"
       r="9.1239996"
       id="circle12964"
       inkscape:export-filename="/home/jonny/Design/Ubuntu/Edgy/logo.png"
       inkscape:export-xdpi="110.30428"
       inkscape:export-ydpi="110.30428" />
    <path
       style="opacity:0.69021738;fill:#767676;fill-opacity:1;stroke:#000000;stroke-width:0.71852332;stroke-opacity:1;display:inline"
       d="m 72.95363,31.322581 c -4.385642,0 -8.568904,0.879923 -12.380063,2.471661 l 1.264467,2.20684 c 3.349143,-1.36694 6.996944,-2.11857 10.821531,-2.11857 14.639913,1e-5 26.806684,11.012397 28.818205,25.305113 l 3.35231,0 C 102.70551,43.465417 89.245457,31.322581 72.95363,31.322581 z"
       id="path12978" />
    <path
       style="opacity:0.22999998;fill:#767676;fill-opacity:1;stroke:#000000;stroke-width:0.71852332;stroke-opacity:1;display:inline"
       d="m 52.486822,38.884692 c -7.686737,5.886997 -12.644733,15.172497 -12.644715,25.599356 0,10.369984 4.91191,19.590076 12.527096,25.481651 l 1.382095,-2.471656 C 46.980934,82.087687 42.635711,73.703562 42.635711,64.307498 42.635692,54.907519 46.979633,46.497851 53.751298,41.091532 l -1.264476,-2.20684 z"
       id="path12980" />
    <path
       style="opacity:0.7;fill:#767676;fill-opacity:1;stroke:#000000;stroke-width:0.71852332;stroke-opacity:1;display:inline"
       d="M 100.7938,68.314634 C 98.787442,82.61259 86.619379,93.678582 71.9756,93.678582 c -3.827181,0 -7.472398,-0.748989 -10.821531,-2.118566 l -1.382095,2.442239 c 3.843477,1.623726 8.065725,2.530517 12.497682,2.530517 16.413557,0 29.966224,-12.324909 31.935284,-28.218138 l -3.41114,0 z"
       id="path12982" />
  </g>
</svg>
